<svg viewBox="0 0 24 24" xmlns="http://www.w3.org/2000/svg">
  <path d="M3 6H5H21" stroke="currentColor" stroke-width="1.5" stroke-linecap="round" stroke-linejoin="round"/>
  <path d="M19 6V20C19 20.5304 18.7893 21.0391 18.4142 21.4142C18.0391 21.7893 17.5304 22 17 22H7C6.46957 22 5.96086 21.7893 5.58579 21.4142C5.21071 21.0391 5 20.5304 5 20V6" stroke="currentColor" stroke-width="1.5" stroke-linecap="round" stroke-linejoin="round"/>
  <path d="M8 6V4C8 3.73478 8.10536 3.48043 8.29289 3.29289C8.48043 3.10536 8.73478 3 9 3H15C15.2652 3 15.5196 3.10536 15.7071 3.29289C15.8946 3.48043 16 3.73478 16 4V6" stroke="currentColor" stroke-width="1.5" stroke-linecap="round" stroke-linejoin="round"/>
  <path d="M10 11V17M14 11V17" stroke="currentColor" stroke-width="1.5" stroke-linecap="round" stroke-linejoin="round"/>
</svg>
